<svg width="14" height="14" viewBox="0 0 14 14" fill="none" xmlns="http://www.w3.org/2000/svg">
<path d="M10 5C10.9946 5 11.9484 5.39509 12.6517 6.09835C13.3549 6.80161 13.75 7.75544 13.75 8.75V13.125H11.25V8.75C11.25 8.41848 11.1183 8.10054 10.8839 7.86612C10.6495 7.6317 10.3315 7.5 10 7.5C9.66848 7.5 9.35054 7.6317 9.11612 7.86612C8.8817 8.10054 8.75 8.41848 8.75 8.75V13.125H6.25V8.75C6.25 7.75544 6.64509 6.80161 7.34835 6.09835C8.05161 5.39509 9.00544 5 10 5V5Z" stroke="url(#paint0_linear_984_1183)" stroke-linecap="round" stroke-linejoin="round"/>
<path d="M3.75 5.625H1.25V13.125H3.75V5.625Z" stroke="url(#paint1_linear_984_1183)" stroke-linecap="round" stroke-linejoin="round"/>
<path d="M2.5 3.75C3.19036 3.75 3.75 3.19036 3.75 2.5C3.75 1.80964 3.19036 1.25 2.5 1.25C1.80964 1.25 1.25 1.80964 1.25 2.5C1.25 3.19036 1.80964 3.75 2.5 3.75Z" stroke="url(#paint2_linear_984_1183)" stroke-linecap="round" stroke-linejoin="round"/>
<defs>
<linearGradient id="paint0_linear_984_1183" x1="13.0869" y1="7.50956" x2="7.87018" y2="7.51717" gradientUnits="userSpaceOnUse">
<stop stop-color="#FFAD32"/>
<stop offset="0.0001" stop-color="#FFAD32"/>
<stop offset="0.78805" stop-color="#FF5F5F"/>
</linearGradient>
<linearGradient id="paint1_linear_984_1183" x1="3.52898" y1="7.94151" x2="1.79006" y2="7.94243" gradientUnits="userSpaceOnUse">
<stop stop-color="#FFAD32"/>
<stop offset="0.0001" stop-color="#FFAD32"/>
<stop offset="0.78805" stop-color="#FF5F5F"/>
</linearGradient>
<linearGradient id="paint2_linear_984_1183" x1="3.52898" y1="2.02217" x2="1.79006" y2="2.02492" gradientUnits="userSpaceOnUse">
<stop stop-color="#FFAD32"/>
<stop offset="0.0001" stop-color="#FFAD32"/>
<stop offset="0.78805" stop-color="#FF5F5F"/>
</linearGradient>
</defs>
</svg>
