<svg width="65" height="63" viewBox="0 0 65 63" fill="none" xmlns="http://www.w3.org/2000/svg">
<path d="M65 31.5C65 48.897 50.4493 63 32.5 63C14.5507 63 0 48.897 0 31.5C0 14.103 14.5507 0 32.5 0C50.4493 0 65 14.103 65 31.5Z" fill="#0E0A3B"/>
<path fill-rule="evenodd" clip-rule="evenodd" d="M32.5 63C50.4493 63 65 48.897 65 31.5C65 14.103 50.4493 0 32.5 0C14.5507 0 0 14.103 0 31.5C0 48.897 14.5507 63 32.5 63ZM32.5 61.5592C49.6776 61.5592 63.6029 48.1013 63.6029 31.5C63.6029 14.8987 49.6776 1.44075 32.5 1.44075C15.3224 1.44075 1.39713 14.8987 1.39713 31.5C1.39713 48.1013 15.3224 61.5592 32.5 61.5592Z" fill="url(#paint0_linear_1005_1584)"/>
<path d="M9.98079 30.2557C9.67151 30.2557 9.36222 30.2315 9.05294 30.183C8.74365 30.1414 8.45194 30.0757 8.1778 29.9856C7.90366 29.8887 7.65764 29.7709 7.43973 29.6324C7.31321 29.5493 7.22534 29.4489 7.17614 29.3312C7.12693 29.2135 7.10936 29.0992 7.12342 28.9884C7.1445 28.8707 7.19019 28.7703 7.26049 28.6872C7.33781 28.5971 7.4327 28.5417 7.54517 28.5209C7.65764 28.5002 7.78065 28.5313 7.9142 28.6144C8.22349 28.7945 8.55035 28.9261 8.89478 29.0092C9.23921 29.0923 9.60121 29.1338 9.98079 29.1338C10.5361 29.1338 10.9403 29.0438 11.1933 28.8637C11.4464 28.6768 11.5729 28.4378 11.5729 28.147C11.5729 27.9046 11.4815 27.7142 11.2988 27.5757C11.123 27.4371 10.8173 27.3229 10.3815 27.2329L9.22164 26.9939C8.55386 26.8554 8.05479 26.6234 7.72442 26.2979C7.40107 25.9655 7.2394 25.5292 7.2394 24.9891C7.2394 24.6497 7.30969 24.3416 7.45028 24.0646C7.59086 23.7876 7.78768 23.5486 8.04073 23.3478C8.30081 23.147 8.60658 22.9946 8.95804 22.8907C9.31653 22.7799 9.71017 22.7245 10.1389 22.7245C10.5607 22.7245 10.9614 22.7765 11.3409 22.8803C11.7205 22.9842 12.0614 23.1366 12.3637 23.3374C12.4762 23.4136 12.55 23.5071 12.5851 23.6179C12.6273 23.7287 12.6378 23.8395 12.6167 23.9503C12.5957 24.0542 12.5465 24.1442 12.4691 24.2204C12.3918 24.2966 12.2934 24.3416 12.1739 24.3554C12.0614 24.3693 11.9314 24.3346 11.7838 24.2515C11.5237 24.1061 11.2601 24.0022 10.993 23.9399C10.7259 23.8776 10.4377 23.8464 10.1284 23.8464C9.80506 23.8464 9.52741 23.8914 9.29544 23.9815C9.06348 24.0715 8.88424 24.1996 8.75771 24.3658C8.63821 24.5251 8.57846 24.7155 8.57846 24.9371C8.57846 25.1864 8.66282 25.3873 8.83152 25.5396C9.00022 25.6851 9.28841 25.7993 9.69611 25.8824L10.8454 26.1214C11.5413 26.2668 12.0579 26.4953 12.3953 26.807C12.7398 27.1186 12.912 27.5341 12.912 28.0535C12.912 28.3859 12.8417 28.6872 12.7011 28.9572C12.5675 29.2273 12.3707 29.4593 12.1106 29.6532C11.8576 29.8471 11.5518 29.996 11.1933 30.0999C10.8348 30.2038 10.4307 30.2557 9.98079 30.2557Z" fill="#5960F6"/>
<path d="M16.0631 30.2349C15.8452 30.2349 15.6765 30.1761 15.557 30.0583C15.4445 29.9337 15.3883 29.764 15.3883 29.5493V23.5036C15.3883 23.282 15.448 23.1158 15.5675 23.005C15.687 22.8873 15.8557 22.8284 16.0736 22.8284H18.6147C19.4301 22.8284 20.0592 23.0292 20.502 23.4309C20.9449 23.8326 21.1663 24.3935 21.1663 25.1137C21.1663 25.834 20.9449 26.3984 20.502 26.807C20.0592 27.2086 19.4301 27.4094 18.6147 27.4094H16.7379V29.5493C16.7379 29.764 16.6817 29.9337 16.5692 30.0583C16.4567 30.1761 16.288 30.2349 16.0631 30.2349ZM16.7379 26.3603H18.4038C18.8818 26.3603 19.2438 26.2564 19.4898 26.0486C19.7359 25.834 19.8589 25.5223 19.8589 25.1137C19.8589 24.7051 19.7359 24.397 19.4898 24.1892C19.2438 23.9815 18.8818 23.8776 18.4038 23.8776H16.7379V26.3603Z" fill="#5960F6"/>
<path d="M34.2788 30.2349C34.0609 30.2349 33.8922 30.1761 33.7727 30.0583C33.6602 29.9337 33.604 29.764 33.604 29.5493V23.9399H31.548C31.3652 23.9399 31.2211 23.8914 31.1157 23.7945C31.0172 23.6906 30.968 23.5521 30.968 23.379C30.968 23.1989 31.0172 23.0639 31.1157 22.9738C31.2211 22.8769 31.3652 22.8284 31.548 22.8284H37.0096C37.1924 22.8284 37.333 22.8769 37.4314 22.9738C37.5368 23.0639 37.5896 23.1989 37.5896 23.379C37.5896 23.5521 37.5368 23.6906 37.4314 23.7945C37.333 23.8914 37.1924 23.9399 37.0096 23.9399H34.9536V29.5493C34.9536 29.764 34.8974 29.9337 34.7849 30.0583C34.6724 30.1761 34.5037 30.2349 34.2788 30.2349Z" fill="#5960F6"/>
<path d="M43.4239 29.7973C43.2377 29.7973 43.0948 29.745 42.9951 29.6403C42.8953 29.5357 42.8454 29.3918 42.8454 29.2087V23.3131C42.8454 23.1235 42.8986 22.9796 43.005 22.8815C43.1114 22.7768 43.2577 22.7245 43.4439 22.7245C43.6101 22.7245 43.7398 22.7572 43.8328 22.8226C43.9326 22.8815 44.0223 22.9861 44.1021 23.1365L46.5656 27.6196H46.2465L48.71 23.1365C48.7897 22.9861 48.8762 22.8815 48.9693 22.8226C49.0624 22.7572 49.192 22.7245 49.3582 22.7245C49.5444 22.7245 49.6874 22.7768 49.7871 22.8815C49.8868 22.9796 49.9367 23.1235 49.9367 23.3131V29.2087C49.9367 29.3918 49.8868 29.5357 49.7871 29.6403C49.694 29.745 49.5511 29.7973 49.3582 29.7973C49.1721 29.7973 49.0291 29.745 48.9294 29.6403C48.8296 29.5357 48.7798 29.3918 48.7798 29.2087V24.6668H48.9992L46.9047 28.4239C46.8382 28.5351 46.7684 28.6169 46.6953 28.6692C46.6221 28.7215 46.5224 28.7477 46.3961 28.7477C46.2697 28.7477 46.1667 28.7215 46.0869 28.6692C46.0071 28.6103 45.9373 28.5286 45.8774 28.4239L43.763 24.657H44.0024V29.2087C44.0024 29.3918 43.9525 29.5357 43.8528 29.6403C43.7597 29.745 43.6167 29.7973 43.4239 29.7973Z" fill="#5960F6"/>
<path d="M55.0448 29.7973C54.8387 29.7973 54.6791 29.7417 54.5661 29.6305C54.4597 29.5128 54.4065 29.3493 54.4065 29.14V26.1579L54.6758 26.9133L52.2722 23.5878C52.1857 23.4701 52.1458 23.3458 52.1525 23.215C52.1658 23.0777 52.2223 22.9632 52.322 22.8717C52.4218 22.7736 52.5614 22.7245 52.7409 22.7245C52.8739 22.7245 52.9936 22.7572 53.1 22.8226C53.213 22.888 53.3194 22.9894 53.4191 23.1267L55.2044 25.6184H54.9252L56.7204 23.1267C56.8268 22.9829 56.9299 22.8815 57.0296 22.8226C57.1293 22.7572 57.2523 22.7245 57.3986 22.7245C57.5715 22.7245 57.7045 22.7703 57.7976 22.8619C57.8973 22.9469 57.9472 23.0548 57.9472 23.1856C57.9538 23.3164 57.9073 23.4537 57.8076 23.5976L55.4238 26.9133L55.6832 26.1579V29.14C55.6832 29.5782 55.4704 29.7973 55.0448 29.7973Z" fill="#5960F6"/>
<path d="M10.8432 42.3056C10.6236 42.3056 10.454 42.2499 10.3342 42.1386C10.2211 42.0207 10.1646 41.8537 10.1646 41.6376V36.0482C10.1646 35.8321 10.2211 35.6683 10.3342 35.557C10.454 35.4391 10.6236 35.3802 10.8432 35.3802H14.4059C14.5722 35.3802 14.6986 35.4228 14.7851 35.5079C14.8782 35.593 14.9248 35.7142 14.9248 35.8714C14.9248 36.0351 14.8782 36.1628 14.7851 36.2545C14.6986 36.3396 14.5722 36.3822 14.4059 36.3822H11.3921V38.2879H14.1863C14.3593 38.2879 14.489 38.3305 14.5755 38.4156C14.662 38.5007 14.7053 38.6252 14.7053 38.7889C14.7053 38.9526 14.662 39.077 14.5755 39.1622C14.489 39.2473 14.3593 39.2899 14.1863 39.2899H11.3921V41.3036H14.4059C14.5722 41.3036 14.6986 41.3462 14.7851 41.4313C14.8782 41.5165 14.9248 41.6409 14.9248 41.8046C14.9248 41.9683 14.8782 42.0928 14.7851 42.1779C14.6986 42.263 14.5722 42.3056 14.4059 42.3056H10.8432Z" fill="#5960F6"/>
<path d="M18.0652 42.3842C17.8722 42.3842 17.7225 42.3318 17.6161 42.227C17.5163 42.1222 17.4664 41.9716 17.4664 41.7752V35.9303C17.4664 35.7273 17.5163 35.5734 17.6161 35.4686C17.7225 35.3573 17.8589 35.3016 18.0253 35.3016C18.1783 35.3016 18.2914 35.3311 18.3646 35.39C18.4444 35.4424 18.5375 35.5341 18.644 35.6651L22.4661 40.5472H22.2067V35.9008C22.2067 35.7109 22.2566 35.5636 22.3564 35.4588C22.4628 35.354 22.6125 35.3016 22.8054 35.3016C22.9984 35.3016 23.1448 35.354 23.2445 35.4588C23.3443 35.5636 23.3942 35.7109 23.3942 35.9008V41.7948C23.3942 41.9782 23.3477 42.1222 23.2545 42.227C23.1614 42.3318 23.035 42.3842 22.8753 42.3842C22.7223 42.3842 22.5992 42.3547 22.5061 42.2958C22.4196 42.2368 22.3231 42.1419 22.2167 42.0109L18.4045 37.1287H18.654V41.7752C18.654 41.9716 18.6041 42.1222 18.5043 42.227C18.4045 42.3318 18.2581 42.3842 18.0652 42.3842Z" fill="#5960F6"/>
<path d="M26.9574 42.3056C26.7378 42.3056 26.5682 42.2499 26.4484 42.1386C26.3353 42.0207 26.2788 41.8537 26.2788 41.6376V36.0482C26.2788 35.8321 26.3353 35.6683 26.4484 35.557C26.5682 35.4391 26.7378 35.3802 26.9574 35.3802H30.5201C30.6864 35.3802 30.8128 35.4228 30.8993 35.5079C30.9925 35.593 31.039 35.7142 31.039 35.8714C31.039 36.0351 30.9925 36.1628 30.8993 36.2545C30.8128 36.3396 30.6864 36.3822 30.5201 36.3822H27.5063V38.2879H30.3005C30.4735 38.2879 30.6033 38.3305 30.6897 38.4156C30.7762 38.5007 30.8195 38.6252 30.8195 38.7889C30.8195 38.9526 30.7762 39.077 30.6897 39.1622C30.6033 39.2473 30.4735 39.2899 30.3005 39.2899H27.5063V41.3036H30.5201C30.6864 41.3036 30.8128 41.3462 30.8993 41.4313C30.9925 41.5165 31.039 41.6409 31.039 41.8046C31.039 41.9683 30.9925 42.0928 30.8993 42.1779C30.8128 42.263 30.6864 42.3056 30.5201 42.3056H26.9574Z" fill="#5960F6"/>
<path d="M34.2193 42.3842C34.0131 42.3842 33.8534 42.3285 33.7403 42.2172C33.6338 42.0993 33.5806 41.9389 33.5806 41.7359V36.0187C33.5806 35.8091 33.6372 35.652 33.7503 35.5472C33.8634 35.4359 34.023 35.3802 34.2293 35.3802H36.6343C37.4061 35.3802 38.0015 35.5636 38.4207 35.9303C38.8398 36.2905 39.0494 36.798 39.0494 37.4529C39.0494 37.8786 38.9529 38.2453 38.76 38.5531C38.5737 38.8609 38.3009 39.0967 37.9417 39.2604C37.5824 39.4241 37.1466 39.506 36.6343 39.506L36.7242 39.3586H37.0535C37.3263 39.3586 37.5624 39.4241 37.762 39.5551C37.9683 39.6861 38.1479 39.8924 38.3009 40.174L39.0494 41.5394C39.1292 41.6769 39.1658 41.8112 39.1592 41.9422C39.1525 42.0731 39.1026 42.1812 39.0095 42.2663C38.9163 42.3449 38.7799 42.3842 38.6003 42.3842C38.4207 42.3842 38.2743 42.3482 38.1612 42.2761C38.0481 42.1976 37.9483 42.0797 37.8618 41.9225L36.8539 40.0954C36.7341 39.8727 36.5911 39.7254 36.4248 39.6533C36.2651 39.5747 36.0589 39.5354 35.806 39.5354H34.858V41.7359C34.858 41.9389 34.8048 42.0993 34.6983 42.2172C34.5919 42.3285 34.4322 42.3842 34.2193 42.3842ZM34.858 38.6022H36.4148C36.8739 38.6022 37.2198 38.5105 37.4527 38.3272C37.6922 38.1373 37.8119 37.8557 37.8119 37.4824C37.8119 37.1156 37.6922 36.8406 37.4527 36.6572C37.2198 36.4673 36.8739 36.3723 36.4148 36.3723H34.858V38.6022Z" fill="#5960F6"/>
<path d="M45.1036 42.4038C44.3252 42.4038 43.6666 42.2598 43.1277 41.9716C42.5954 41.6835 42.1896 41.2742 41.9102 40.7437C41.6307 40.2133 41.491 39.5846 41.491 38.8576C41.491 38.3075 41.5709 37.8131 41.7305 37.3743C41.8969 36.9355 42.133 36.5623 42.4391 36.2545C42.7518 35.9401 43.131 35.7011 43.5767 35.5374C44.0225 35.3671 44.5281 35.282 45.0936 35.282C45.4662 35.282 45.8388 35.3278 46.2113 35.4195C46.5906 35.5046 46.9465 35.652 47.2792 35.8615C47.3923 35.9336 47.4654 36.022 47.4987 36.1268C47.5386 36.2315 47.5453 36.3396 47.5187 36.4509C47.492 36.5557 47.4422 36.6474 47.369 36.726C47.2958 36.8046 47.2026 36.8537 47.0895 36.8733C46.9831 36.893 46.8633 36.8668 46.7303 36.7947C46.4775 36.6507 46.2213 36.5459 45.9619 36.4804C45.7024 36.4149 45.413 36.3822 45.0936 36.3822C44.6013 36.3822 44.1855 36.4804 43.8462 36.6769C43.5069 36.8668 43.2507 37.1451 43.0778 37.5118C42.9114 37.8786 42.8283 38.3272 42.8283 38.8576C42.8283 39.6631 43.0245 40.2755 43.4171 40.6946C43.8096 41.1137 44.3917 41.3233 45.1635 41.3233C45.4296 41.3233 45.6991 41.2971 45.9718 41.2447C46.2446 41.1923 46.5107 41.1203 46.7702 41.0286L46.5207 41.5885V39.4962H45.423C45.2566 39.4962 45.1269 39.4536 45.0338 39.3685C44.9473 39.2833 44.904 39.1687 44.904 39.0246C44.904 38.874 44.9473 38.7594 45.0338 38.6808C45.1269 38.6022 45.2566 38.5629 45.423 38.5629H47.0696C47.2359 38.5629 47.3623 38.6088 47.4488 38.7005C47.5419 38.7856 47.5885 38.91 47.5885 39.0738V41.4608C47.5885 41.6049 47.5586 41.726 47.4987 41.8243C47.4455 41.9225 47.3557 41.9945 47.2293 42.0404C46.9365 42.1452 46.6005 42.2336 46.2213 42.3056C45.8421 42.3711 45.4695 42.4038 45.1036 42.4038Z" fill="#5960F6"/>
<path d="M52.5851 42.3842C52.3788 42.3842 52.2192 42.3285 52.106 42.2172C51.9996 42.0993 51.9464 41.9356 51.9464 41.726V38.7398L52.2158 39.4962L49.8108 36.1661C49.7243 36.0482 49.6843 35.9238 49.691 35.7928C49.7043 35.6552 49.7609 35.5406 49.8607 35.449C49.9605 35.3507 50.1002 35.3016 50.2798 35.3016C50.4129 35.3016 50.5326 35.3344 50.6391 35.3998C50.7522 35.4653 50.8586 35.5668 50.9584 35.7044L52.7447 38.1995H52.4653L54.2616 35.7044C54.3681 35.5603 54.4712 35.4588 54.571 35.3998C54.6708 35.3344 54.7939 35.3016 54.9402 35.3016C55.1132 35.3016 55.2463 35.3474 55.3394 35.4391C55.4392 35.5243 55.4891 35.6323 55.4891 35.7633C55.4958 35.8943 55.4492 36.0318 55.3494 36.1759L52.9643 39.4962L53.2238 38.7398V41.726C53.2238 42.1648 53.0109 42.3842 52.5851 42.3842Z" fill="#5960F6"/>
<path fill-rule="evenodd" clip-rule="evenodd" d="M26.3792 30.5132C28.6022 30.5132 30.4043 28.7696 30.4043 26.6189C30.4043 24.4681 28.6022 22.7245 26.3792 22.7245C24.1563 22.7245 22.3542 24.4681 22.3542 26.6189C22.3542 28.7696 24.1563 30.5132 26.3792 30.5132ZM26.4136 29.8359C28.2756 29.8359 29.7851 28.3956 29.7851 26.6189C29.7851 24.8421 28.2756 23.4018 26.4136 23.4018C24.5517 23.4018 23.0422 24.8421 23.0422 26.6189C23.0422 28.3956 24.5517 29.8359 26.4136 29.8359Z" fill="url(#paint1_linear_1005_1584)"/>
<path d="M27.6521 26.6189C27.6521 27.2734 27.0976 27.8041 26.4136 27.8041C25.7296 27.8041 25.1752 27.2734 25.1752 26.6189C25.1752 25.9643 25.7296 25.4336 26.4136 25.4336C27.0976 25.4336 27.6521 25.9643 27.6521 26.6189Z" fill="url(#paint2_linear_1005_1584)"/>
<defs>
<linearGradient id="paint0_linear_1005_1584" x1="59.2535" y1="19.4587" x2="14.0416" y2="19.5325" gradientUnits="userSpaceOnUse">
<stop stop-color="#FFAD32"/>
<stop offset="0.0001" stop-color="#FFAD32"/>
<stop offset="0.78805" stop-color="#FF5F5F"/>
</linearGradient>
<linearGradient id="paint1_linear_1005_1584" x1="59.2535" y1="19.4587" x2="14.0416" y2="19.5325" gradientUnits="userSpaceOnUse">
<stop stop-color="#FFAD32"/>
<stop offset="0.0001" stop-color="#FFAD32"/>
<stop offset="0.78805" stop-color="#FF5F5F"/>
</linearGradient>
<linearGradient id="paint2_linear_1005_1584" x1="59.2535" y1="19.4587" x2="14.0416" y2="19.5325" gradientUnits="userSpaceOnUse">
<stop stop-color="#FFAD32"/>
<stop offset="0.0001" stop-color="#FFAD32"/>
<stop offset="0.78805" stop-color="#FF5F5F"/>
</linearGradient>
</defs>
</svg>
