<svg width="14" height="15" viewBox="0 0 14 15" fill="none" xmlns="http://www.w3.org/2000/svg">
<g clip-path="url(#clip0_984_1178)">
<path d="M12.8358 10.3699V12.1199C12.8364 12.2824 12.8032 12.4432 12.7381 12.592C12.673 12.7409 12.5775 12.8745 12.4578 12.9843C12.3381 13.0941 12.1968 13.1778 12.0429 13.2298C11.889 13.2819 11.7259 13.3012 11.5641 13.2866C9.7691 13.0915 8.04486 12.4781 6.52994 11.4957C5.12051 10.6001 3.92556 9.40516 3.02994 7.99573C2.0441 6.47393 1.43058 4.74131 1.23911 2.93823C1.22453 2.77692 1.2437 2.61434 1.2954 2.46084C1.3471 2.30735 1.43019 2.1663 1.53939 2.04667C1.64859 1.92705 1.7815 1.83147 1.92965 1.76603C2.07781 1.70059 2.23798 1.66671 2.39994 1.66656H4.14994C4.43304 1.66377 4.70749 1.76402 4.92214 1.94862C5.13679 2.13322 5.27699 2.38957 5.31661 2.66989C5.39047 3.22993 5.52746 3.77982 5.72494 4.30906C5.80343 4.51785 5.82041 4.74476 5.77389 4.96291C5.72736 5.18105 5.61928 5.38129 5.46244 5.53989L4.72161 6.28073C5.55202 7.74113 6.76121 8.95032 8.22161 9.78073L8.96244 9.03989C9.12104 8.88306 9.32128 8.77497 9.53943 8.72845C9.75758 8.68192 9.98449 8.69891 10.1933 8.77739C10.7225 8.97488 11.2724 9.11186 11.8324 9.18573C12.1158 9.2257 12.3746 9.36843 12.5596 9.58677C12.7446 9.8051 12.8429 10.0838 12.8358 10.3699Z" stroke="url(#paint0_linear_984_1178)" stroke-width="1.5" stroke-linecap="round" stroke-linejoin="round"/>
</g>
<defs>
<linearGradient id="paint0_linear_984_1178" x1="11.8104" y1="5.25704" x2="3.74063" y2="5.26977" gradientUnits="userSpaceOnUse">
<stop stop-color="#FFAD32"/>
<stop offset="0.0001" stop-color="#FFAD32"/>
<stop offset="0.78805" stop-color="#FF5F5F"/>
</linearGradient>
<clipPath id="clip0_984_1178">
<rect width="14" height="14" fill="white" transform="translate(0 0.5)"/>
</clipPath>
</defs>
</svg>
