<svg width="571" height="125" viewBox="0 0 571 125" fill="none" xmlns="http://www.w3.org/2000/svg">
<path d="M570 84C570 60.3333 570 17.1182 570 9.59119V9.59119C570 5.39869 566.601 2 562.409 2L250.919 2C245.385 2 240.903 6.49507 240.919 12.0294L241.204 108.846C241.204 124 241.204 124 226.66 124C211.146 124 217.738 124 190.804 124C181.613 124 181.904 120.386 181.904 106.493C181.904 92.5999 181.029 73.7693 181.613 33.9106C181.613 20.1755 181.613 20.1755 165.2 20.1755H63.0027H8V20.1755C3.85786 20.1755 0.5 23.5334 0.5 27.6755V53.5" stroke="#5960F6"/>
<circle cx="1.5" cy="1.5" r="1.5" transform="matrix(-1 0 0 1 82 19)" fill="url(#paint0_linear_1012_1601)"/>
<circle cx="1.5" cy="1.5" r="1.5" transform="matrix(-1 0 0 1 145 19)" fill="url(#paint1_linear_1012_1601)"/>
<circle cx="2.5" cy="2.5" r="2.5" transform="matrix(-1 0 0 1 66 18)" fill="url(#paint2_linear_1012_1601)"/>
<circle cx="1.5" cy="1.5" r="1.5" transform="matrix(-1 0 0 1 462 1)" fill="url(#paint3_linear_1012_1601)"/>
<circle cx="1.5" cy="1.5" r="1.5" transform="matrix(-1 0 0 1 481 1)" fill="url(#paint4_linear_1012_1601)"/>
<circle cx="2.5" cy="2.5" r="2.5" transform="matrix(-1 0 0 1 429 0)" fill="url(#paint5_linear_1012_1601)"/>
<defs>
<linearGradient id="paint0_linear_1012_1601" x1="2.73478" y1="0.926605" x2="0.648072" y2="0.929905" gradientUnits="userSpaceOnUse">
<stop stop-color="#FFAD32"/>
<stop offset="0.0001" stop-color="#FFAD32"/>
<stop offset="0.78805" stop-color="#FF5F5F"/>
</linearGradient>
<linearGradient id="paint1_linear_1012_1601" x1="2.73478" y1="0.926605" x2="0.648072" y2="0.929905" gradientUnits="userSpaceOnUse">
<stop stop-color="#FFAD32"/>
<stop offset="0.0001" stop-color="#FFAD32"/>
<stop offset="0.78805" stop-color="#FF5F5F"/>
</linearGradient>
<linearGradient id="paint2_linear_1012_1601" x1="4.55796" y1="1.54434" x2="1.08012" y2="1.54984" gradientUnits="userSpaceOnUse">
<stop stop-color="#FFAD32"/>
<stop offset="0.0001" stop-color="#FFAD32"/>
<stop offset="0.78805" stop-color="#FF5F5F"/>
</linearGradient>
<linearGradient id="paint3_linear_1012_1601" x1="2.73478" y1="0.926605" x2="0.648072" y2="0.929905" gradientUnits="userSpaceOnUse">
<stop stop-color="#FFAD32"/>
<stop offset="0.0001" stop-color="#FFAD32"/>
<stop offset="0.78805" stop-color="#FF5F5F"/>
</linearGradient>
<linearGradient id="paint4_linear_1012_1601" x1="2.73478" y1="0.926605" x2="0.648072" y2="0.929905" gradientUnits="userSpaceOnUse">
<stop stop-color="#FFAD32"/>
<stop offset="0.0001" stop-color="#FFAD32"/>
<stop offset="0.78805" stop-color="#FF5F5F"/>
</linearGradient>
<linearGradient id="paint5_linear_1012_1601" x1="4.55796" y1="1.54434" x2="1.08012" y2="1.54984" gradientUnits="userSpaceOnUse">
<stop stop-color="#FFAD32"/>
<stop offset="0.0001" stop-color="#FFAD32"/>
<stop offset="0.78805" stop-color="#FF5F5F"/>
</linearGradient>
</defs>
</svg>
