<svg width="603" height="146" viewBox="0 0 603 146" fill="none" xmlns="http://www.w3.org/2000/svg">
<path d="M603 114.5C603 131.897 588.449 146 570.5 146C552.551 146 538 131.897 538 114.5C538 97.103 552.551 83 570.5 83C588.449 83 603 97.103 603 114.5Z" fill="#0E0A3B"/>
<path fill-rule="evenodd" clip-rule="evenodd" d="M570.5 146C588.449 146 603 131.897 603 114.5C603 97.103 588.449 83 570.5 83C552.551 83 538 97.103 538 114.5C538 131.897 552.551 146 570.5 146ZM570.5 144.559C587.678 144.559 601.603 131.101 601.603 114.5C601.603 97.8987 587.678 84.4407 570.5 84.4407C553.322 84.4407 539.397 97.8987 539.397 114.5C539.397 131.101 553.322 144.559 570.5 144.559Z" fill="url(#paint0_linear_1012_1603)"/>
<path d="M547.981 113.256C547.672 113.256 547.362 113.231 547.053 113.183C546.744 113.141 546.452 113.076 546.178 112.986C545.904 112.889 545.658 112.771 545.44 112.632C545.313 112.549 545.225 112.449 545.176 112.331C545.127 112.213 545.109 112.099 545.123 111.988C545.145 111.871 545.19 111.77 545.26 111.687C545.338 111.597 545.433 111.542 545.545 111.521C545.658 111.5 545.781 111.531 545.914 111.614C546.223 111.794 546.55 111.926 546.895 112.009C547.239 112.092 547.601 112.134 547.981 112.134C548.536 112.134 548.94 112.044 549.193 111.864C549.446 111.677 549.573 111.438 549.573 111.147C549.573 110.905 549.482 110.714 549.299 110.576C549.123 110.437 548.817 110.323 548.381 110.233L547.222 109.994C546.554 109.855 546.055 109.623 545.724 109.298C545.401 108.966 545.239 108.529 545.239 107.989C545.239 107.65 545.31 107.342 545.45 107.065C545.591 106.788 545.788 106.549 546.041 106.348C546.301 106.147 546.607 105.995 546.958 105.891C547.317 105.78 547.71 105.725 548.139 105.725C548.561 105.725 548.961 105.776 549.341 105.88C549.721 105.984 550.061 106.137 550.364 106.337C550.476 106.414 550.55 106.507 550.585 106.618C550.627 106.729 550.638 106.839 550.617 106.95C550.596 107.054 550.546 107.144 550.469 107.22C550.392 107.297 550.293 107.342 550.174 107.355C550.061 107.369 549.931 107.335 549.784 107.252C549.524 107.106 549.26 107.002 548.993 106.94C548.726 106.878 548.438 106.846 548.128 106.846C547.805 106.846 547.527 106.891 547.295 106.981C547.063 107.071 546.884 107.2 546.758 107.366C546.638 107.525 546.578 107.716 546.578 107.937C546.578 108.186 546.663 108.387 546.832 108.54C547 108.685 547.288 108.799 547.696 108.882L548.845 109.121C549.541 109.267 550.058 109.495 550.395 109.807C550.74 110.119 550.912 110.534 550.912 111.053C550.912 111.386 550.842 111.687 550.701 111.957C550.568 112.227 550.371 112.459 550.111 112.653C549.858 112.847 549.552 112.996 549.193 113.1C548.835 113.204 548.431 113.256 547.981 113.256Z" fill="#5960F6"/>
<path d="M554.063 113.235C553.845 113.235 553.676 113.176 553.557 113.058C553.445 112.934 553.388 112.764 553.388 112.549V106.504C553.388 106.282 553.448 106.116 553.568 106.005C553.687 105.887 553.856 105.828 554.074 105.828H556.615C557.43 105.828 558.059 106.029 558.502 106.431C558.945 106.833 559.166 107.394 559.166 108.114C559.166 108.834 558.945 109.398 558.502 109.807C558.059 110.209 557.43 110.409 556.615 110.409H554.738V112.549C554.738 112.764 554.682 112.934 554.569 113.058C554.457 113.176 554.288 113.235 554.063 113.235ZM554.738 109.36H556.404C556.882 109.36 557.244 109.256 557.49 109.049C557.736 108.834 557.859 108.522 557.859 108.114C557.859 107.705 557.736 107.397 557.49 107.189C557.244 106.981 556.882 106.878 556.404 106.878H554.738V109.36Z" fill="#5960F6"/>
<path d="M572.279 113.235C572.061 113.235 571.892 113.176 571.773 113.058C571.66 112.934 571.604 112.764 571.604 112.549V106.94H569.548C569.365 106.94 569.221 106.891 569.116 106.794C569.017 106.691 568.968 106.552 568.968 106.379C568.968 106.199 569.017 106.064 569.116 105.974C569.221 105.877 569.365 105.828 569.548 105.828H575.01C575.192 105.828 575.333 105.877 575.431 105.974C575.537 106.064 575.59 106.199 575.59 106.379C575.59 106.552 575.537 106.691 575.431 106.794C575.333 106.891 575.192 106.94 575.01 106.94H572.954V112.549C572.954 112.764 572.897 112.934 572.785 113.058C572.672 113.176 572.504 113.235 572.279 113.235Z" fill="#5960F6"/>
<path d="M581.424 112.797C581.238 112.797 581.095 112.745 580.995 112.64C580.895 112.536 580.845 112.392 580.845 112.209V106.313C580.845 106.123 580.899 105.98 581.005 105.881C581.111 105.777 581.258 105.725 581.444 105.725C581.61 105.725 581.74 105.757 581.833 105.823C581.933 105.881 582.022 105.986 582.102 106.137L584.566 110.62H584.246L586.71 106.137C586.79 105.986 586.876 105.881 586.969 105.823C587.062 105.757 587.192 105.725 587.358 105.725C587.544 105.725 587.687 105.777 587.787 105.881C587.887 105.98 587.937 106.123 587.937 106.313V112.209C587.937 112.392 587.887 112.536 587.787 112.64C587.694 112.745 587.551 112.797 587.358 112.797C587.172 112.797 587.029 112.745 586.929 112.64C586.83 112.536 586.78 112.392 586.78 112.209V107.667H586.999L584.905 111.424C584.838 111.535 584.768 111.617 584.695 111.669C584.622 111.722 584.522 111.748 584.396 111.748C584.27 111.748 584.167 111.722 584.087 111.669C584.007 111.61 583.937 111.529 583.877 111.424L581.763 107.657H582.002V112.209C582.002 112.392 581.953 112.536 581.853 112.64C581.76 112.745 581.617 112.797 581.424 112.797Z" fill="#5960F6"/>
<path d="M593.045 112.797C592.839 112.797 592.679 112.742 592.566 112.631C592.46 112.513 592.407 112.349 592.407 112.14V109.158L592.676 109.913L590.272 106.588C590.186 106.47 590.146 106.346 590.152 106.215C590.166 106.078 590.222 105.963 590.322 105.872C590.422 105.774 590.561 105.725 590.741 105.725C590.874 105.725 590.994 105.757 591.1 105.823C591.213 105.888 591.319 105.989 591.419 106.127L593.204 108.618H592.925L594.72 106.127C594.827 105.983 594.93 105.881 595.03 105.823C595.129 105.757 595.252 105.725 595.399 105.725C595.572 105.725 595.704 105.77 595.798 105.862C595.897 105.947 595.947 106.055 595.947 106.186C595.954 106.316 595.907 106.454 595.808 106.598L593.424 109.913L593.683 109.158V112.14C593.683 112.578 593.47 112.797 593.045 112.797Z" fill="#5960F6"/>
<path d="M548.843 125.306C548.624 125.306 548.454 125.25 548.334 125.139C548.221 125.021 548.165 124.854 548.165 124.638V119.048C548.165 118.832 548.221 118.668 548.334 118.557C548.454 118.439 548.624 118.38 548.843 118.38H552.406C552.572 118.38 552.699 118.423 552.785 118.508C552.878 118.593 552.925 118.714 552.925 118.871C552.925 119.035 552.878 119.163 552.785 119.254C552.699 119.34 552.572 119.382 552.406 119.382H549.392V121.288H552.186C552.359 121.288 552.489 121.33 552.576 121.416C552.662 121.501 552.705 121.625 552.705 121.789C552.705 121.953 552.662 122.077 552.576 122.162C552.489 122.247 552.359 122.29 552.186 122.29H549.392V124.304H552.406C552.572 124.304 552.699 124.346 552.785 124.431C552.878 124.516 552.925 124.641 552.925 124.805C552.925 124.968 552.878 125.093 552.785 125.178C552.699 125.263 552.572 125.306 552.406 125.306H548.843Z" fill="#5960F6"/>
<path d="M556.065 125.384C555.872 125.384 555.723 125.332 555.616 125.227C555.516 125.122 555.466 124.972 555.466 124.775V118.93C555.466 118.727 555.516 118.573 555.616 118.469C555.723 118.357 555.859 118.302 556.025 118.302C556.178 118.302 556.291 118.331 556.365 118.39C556.444 118.442 556.538 118.534 556.644 118.665L560.466 123.547H560.207V118.901C560.207 118.711 560.257 118.564 560.356 118.459C560.463 118.354 560.613 118.302 560.805 118.302C560.998 118.302 561.145 118.354 561.245 118.459C561.344 118.564 561.394 118.711 561.394 118.901V124.795C561.394 124.978 561.348 125.122 561.255 125.227C561.161 125.332 561.035 125.384 560.875 125.384C560.722 125.384 560.599 125.355 560.506 125.296C560.42 125.237 560.323 125.142 560.217 125.011L556.404 120.129H556.654V124.775C556.654 124.972 556.604 125.122 556.504 125.227C556.404 125.332 556.258 125.384 556.065 125.384Z" fill="#5960F6"/>
<path d="M564.957 125.306C564.738 125.306 564.568 125.25 564.448 125.139C564.335 125.021 564.279 124.854 564.279 124.638V119.048C564.279 118.832 564.335 118.668 564.448 118.557C564.568 118.439 564.738 118.38 564.957 118.38H568.52C568.686 118.38 568.813 118.423 568.899 118.508C568.992 118.593 569.039 118.714 569.039 118.871C569.039 119.035 568.992 119.163 568.899 119.254C568.813 119.34 568.686 119.382 568.52 119.382H565.506V121.288H568.301C568.474 121.288 568.603 121.33 568.69 121.416C568.776 121.501 568.819 121.625 568.819 121.789C568.819 121.953 568.776 122.077 568.69 122.162C568.603 122.247 568.474 122.29 568.301 122.29H565.506V124.304H568.52C568.686 124.304 568.813 124.346 568.899 124.431C568.992 124.516 569.039 124.641 569.039 124.805C569.039 124.968 568.992 125.093 568.899 125.178C568.813 125.263 568.686 125.306 568.52 125.306H564.957Z" fill="#5960F6"/>
<path d="M572.219 125.384C572.013 125.384 571.853 125.329 571.74 125.217C571.634 125.099 571.581 124.939 571.581 124.736V119.019C571.581 118.809 571.637 118.652 571.75 118.547C571.863 118.436 572.023 118.38 572.229 118.38H574.634C575.406 118.38 576.002 118.564 576.421 118.93C576.84 119.29 577.049 119.798 577.049 120.453C577.049 120.879 576.953 121.245 576.76 121.553C576.574 121.861 576.301 122.097 575.942 122.26C575.582 122.424 575.147 122.506 574.634 122.506L574.724 122.359H575.053C575.326 122.359 575.562 122.424 575.762 122.555C575.968 122.686 576.148 122.892 576.301 123.174L577.049 124.539C577.129 124.677 577.166 124.811 577.159 124.942C577.153 125.073 577.103 125.181 577.009 125.266C576.916 125.345 576.78 125.384 576.6 125.384C576.421 125.384 576.274 125.348 576.161 125.276C576.048 125.198 575.948 125.08 575.862 124.923L574.854 123.095C574.734 122.873 574.591 122.725 574.425 122.653C574.265 122.575 574.059 122.535 573.806 122.535H572.858V124.736C572.858 124.939 572.805 125.099 572.698 125.217C572.592 125.329 572.432 125.384 572.219 125.384ZM572.858 121.602H574.415C574.874 121.602 575.22 121.511 575.453 121.327C575.692 121.137 575.812 120.856 575.812 120.482C575.812 120.116 575.692 119.841 575.453 119.657C575.22 119.467 574.874 119.372 574.415 119.372H572.858V121.602Z" fill="#5960F6"/>
<path d="M583.104 125.404C582.325 125.404 581.667 125.26 581.128 124.972C580.595 124.683 580.19 124.274 579.91 123.744C579.631 123.213 579.491 122.585 579.491 121.858C579.491 121.308 579.571 120.813 579.731 120.374C579.897 119.936 580.133 119.562 580.439 119.254C580.752 118.94 581.131 118.701 581.577 118.537C582.022 118.367 582.528 118.282 583.094 118.282C583.466 118.282 583.839 118.328 584.211 118.419C584.591 118.505 584.947 118.652 585.279 118.862C585.392 118.934 585.465 119.022 585.499 119.127C585.539 119.232 585.545 119.34 585.519 119.451C585.492 119.556 585.442 119.647 585.369 119.726C585.296 119.805 585.203 119.854 585.09 119.873C584.983 119.893 584.863 119.867 584.73 119.795C584.477 119.651 584.221 119.546 583.962 119.48C583.702 119.415 583.413 119.382 583.094 119.382C582.601 119.382 582.185 119.48 581.846 119.677C581.507 119.867 581.251 120.145 581.078 120.512C580.911 120.879 580.828 121.327 580.828 121.858C580.828 122.663 581.025 123.275 581.417 123.695C581.81 124.114 582.392 124.323 583.163 124.323C583.43 124.323 583.699 124.297 583.972 124.245C584.245 124.192 584.511 124.12 584.77 124.029L584.521 124.589V122.496H583.423C583.257 122.496 583.127 122.454 583.034 122.368C582.947 122.283 582.904 122.169 582.904 122.025C582.904 121.874 582.947 121.759 583.034 121.681C583.127 121.602 583.257 121.563 583.423 121.563H585.07C585.236 121.563 585.362 121.609 585.449 121.7C585.542 121.786 585.589 121.91 585.589 122.074V124.461C585.589 124.605 585.559 124.726 585.499 124.824C585.445 124.923 585.356 124.995 585.229 125.04C584.937 125.145 584.601 125.234 584.221 125.306C583.842 125.371 583.47 125.404 583.104 125.404Z" fill="#5960F6"/>
<path d="M590.585 125.384C590.379 125.384 590.219 125.329 590.106 125.217C590 125.099 589.946 124.936 589.946 124.726V121.74L590.216 122.496L587.811 119.166C587.724 119.048 587.684 118.924 587.691 118.793C587.704 118.655 587.761 118.541 587.861 118.449C587.96 118.351 588.1 118.302 588.28 118.302C588.413 118.302 588.533 118.334 588.639 118.4C588.752 118.465 588.859 118.567 588.958 118.704L590.745 121.199H590.465L592.262 118.704C592.368 118.56 592.471 118.459 592.571 118.4C592.671 118.334 592.794 118.302 592.94 118.302C593.113 118.302 593.246 118.347 593.339 118.439C593.439 118.524 593.489 118.632 593.489 118.763C593.496 118.894 593.449 119.032 593.349 119.176L590.964 122.496L591.224 121.74V124.726C591.224 125.165 591.011 125.384 590.585 125.384Z" fill="#5960F6"/>
<path fill-rule="evenodd" clip-rule="evenodd" d="M564.379 113.513C566.602 113.513 568.404 111.77 568.404 109.619C568.404 107.468 566.602 105.725 564.379 105.725C562.156 105.725 560.354 107.468 560.354 109.619C560.354 111.77 562.156 113.513 564.379 113.513ZM564.414 112.836C566.276 112.836 567.785 111.396 567.785 109.619C567.785 107.842 566.276 106.402 564.414 106.402C562.552 106.402 561.042 107.842 561.042 109.619C561.042 111.396 562.552 112.836 564.414 112.836Z" fill="url(#paint1_linear_1012_1603)"/>
<path d="M565.652 109.619C565.652 110.273 565.098 110.804 564.414 110.804C563.73 110.804 563.175 110.273 563.175 109.619C563.175 108.964 563.73 108.434 564.414 108.434C565.098 108.434 565.652 108.964 565.652 109.619Z" fill="url(#paint2_linear_1012_1603)"/>
<path d="M570 84C570 60.3333 570 17.1182 570 9.59119V9.59119C570 5.39869 566.601 2 562.409 2L250.919 2C245.385 2 240.903 6.49507 240.919 12.0294L241.204 108.846C241.204 124 241.204 124 226.66 124C211.146 124 217.738 124 190.804 124C181.613 124 181.904 120.386 181.904 106.493C181.904 92.5999 181.029 73.7693 181.613 33.9106C181.613 20.1755 181.613 20.1755 165.2 20.1755H63.0027H8V20.1755C3.85786 20.1755 0.5 23.5334 0.5 27.6755V53.5" stroke="#5960F6"/>
<circle cx="1.5" cy="1.5" r="1.5" transform="matrix(-1 0 0 1 82 19)" fill="url(#paint3_linear_1012_1603)"/>
<circle cx="1.5" cy="1.5" r="1.5" transform="matrix(-1 0 0 1 145 19)" fill="url(#paint4_linear_1012_1603)"/>
<circle cx="2.5" cy="2.5" r="2.5" transform="matrix(-1 0 0 1 66 18)" fill="url(#paint5_linear_1012_1603)"/>
<circle cx="1.5" cy="1.5" r="1.5" transform="matrix(-1 0 0 1 462 1)" fill="url(#paint6_linear_1012_1603)"/>
<circle cx="1.5" cy="1.5" r="1.5" transform="matrix(-1 0 0 1 481 1)" fill="url(#paint7_linear_1012_1603)"/>
<circle cx="2.5" cy="2.5" r="2.5" transform="matrix(-1 0 0 1 429 0)" fill="url(#paint8_linear_1012_1603)"/>
<defs>
<linearGradient id="paint0_linear_1012_1603" x1="597.253" y1="102.459" x2="552.042" y2="102.532" gradientUnits="userSpaceOnUse">
<stop stop-color="#FFAD32"/>
<stop offset="0.0001" stop-color="#FFAD32"/>
<stop offset="0.78805" stop-color="#FF5F5F"/>
</linearGradient>
<linearGradient id="paint1_linear_1012_1603" x1="597.253" y1="102.459" x2="552.042" y2="102.532" gradientUnits="userSpaceOnUse">
<stop stop-color="#FFAD32"/>
<stop offset="0.0001" stop-color="#FFAD32"/>
<stop offset="0.78805" stop-color="#FF5F5F"/>
</linearGradient>
<linearGradient id="paint2_linear_1012_1603" x1="597.253" y1="102.459" x2="552.042" y2="102.532" gradientUnits="userSpaceOnUse">
<stop stop-color="#FFAD32"/>
<stop offset="0.0001" stop-color="#FFAD32"/>
<stop offset="0.78805" stop-color="#FF5F5F"/>
</linearGradient>
<linearGradient id="paint3_linear_1012_1603" x1="2.73478" y1="0.926605" x2="0.648072" y2="0.929905" gradientUnits="userSpaceOnUse">
<stop stop-color="#FFAD32"/>
<stop offset="0.0001" stop-color="#FFAD32"/>
<stop offset="0.78805" stop-color="#FF5F5F"/>
</linearGradient>
<linearGradient id="paint4_linear_1012_1603" x1="2.73478" y1="0.926605" x2="0.648072" y2="0.929905" gradientUnits="userSpaceOnUse">
<stop stop-color="#FFAD32"/>
<stop offset="0.0001" stop-color="#FFAD32"/>
<stop offset="0.78805" stop-color="#FF5F5F"/>
</linearGradient>
<linearGradient id="paint5_linear_1012_1603" x1="4.55796" y1="1.54434" x2="1.08012" y2="1.54984" gradientUnits="userSpaceOnUse">
<stop stop-color="#FFAD32"/>
<stop offset="0.0001" stop-color="#FFAD32"/>
<stop offset="0.78805" stop-color="#FF5F5F"/>
</linearGradient>
<linearGradient id="paint6_linear_1012_1603" x1="2.73478" y1="0.926605" x2="0.648072" y2="0.929905" gradientUnits="userSpaceOnUse">
<stop stop-color="#FFAD32"/>
<stop offset="0.0001" stop-color="#FFAD32"/>
<stop offset="0.78805" stop-color="#FF5F5F"/>
</linearGradient>
<linearGradient id="paint7_linear_1012_1603" x1="2.73478" y1="0.926605" x2="0.648072" y2="0.929905" gradientUnits="userSpaceOnUse">
<stop stop-color="#FFAD32"/>
<stop offset="0.0001" stop-color="#FFAD32"/>
<stop offset="0.78805" stop-color="#FF5F5F"/>
</linearGradient>
<linearGradient id="paint8_linear_1012_1603" x1="4.55796" y1="1.54434" x2="1.08012" y2="1.54984" gradientUnits="userSpaceOnUse">
<stop stop-color="#FFAD32"/>
<stop offset="0.0001" stop-color="#FFAD32"/>
<stop offset="0.78805" stop-color="#FF5F5F"/>
</linearGradient>
</defs>
</svg>
