<svg width="10" height="10" viewBox="0 0 10 10" fill="none" xmlns="http://www.w3.org/2000/svg">
<g clip-path="url(#clip0_984_1222)">
<path d="M9.16953 7.04996V8.29996C9.17 8.416 9.14623 8.53086 9.09974 8.63719C9.05325 8.74351 8.98507 8.83895 8.89956 8.9174C8.81405 8.99585 8.7131 9.05558 8.60317 9.09275C8.49325 9.12993 8.37677 9.14374 8.26119 9.13329C6.97904 8.99398 5.74744 8.55585 4.66536 7.85413C3.65862 7.2144 2.80508 6.36086 2.16536 5.35413C1.46119 4.26713 1.02296 3.02954 0.886194 1.74163C0.875782 1.6264 0.889476 1.51028 0.926403 1.40064C0.96333 1.291 1.02268 1.19025 1.10068 1.1048C1.17868 1.01936 1.27361 0.951088 1.37944 0.904343C1.48527 0.857598 1.59967 0.833401 1.71536 0.833292H2.96536C3.16757 0.831302 3.36361 0.902908 3.51693 1.03476C3.67025 1.16662 3.77039 1.34973 3.79869 1.54996C3.85145 1.94999 3.9493 2.34276 4.09036 2.72079C4.14642 2.86993 4.15855 3.03201 4.12532 3.18783C4.09209 3.34364 4.01489 3.48667 3.90286 3.59996L3.37369 4.12913C3.96684 5.17227 4.83055 6.03598 5.87369 6.62913L6.40286 6.09996C6.51615 5.98793 6.65918 5.91073 6.81499 5.8775C6.97081 5.84427 7.13289 5.8564 7.28203 5.91246C7.66006 6.05352 8.05283 6.15137 8.45286 6.20413C8.65526 6.23268 8.84011 6.33463 8.97225 6.49058C9.10439 6.64654 9.1746 6.84561 9.16953 7.04996Z" stroke="url(#paint0_linear_984_1222)" stroke-linecap="round" stroke-linejoin="round"/>
</g>
<defs>
<linearGradient id="paint0_linear_984_1222" x1="8.43715" y1="3.39792" x2="2.673" y2="3.40701" gradientUnits="userSpaceOnUse">
<stop stop-color="#FFAD32"/>
<stop offset="0.0001" stop-color="#FFAD32"/>
<stop offset="0.78805" stop-color="#FF5F5F"/>
</linearGradient>
<clipPath id="clip0_984_1222">
<rect width="10" height="10" fill="white"/>
</clipPath>
</defs>
</svg>
