<svg width="474" height="109" viewBox="0 0 474 109" fill="none" xmlns="http://www.w3.org/2000/svg">
<path d="M0 34.6722H7.11115C12.0037 34.6722 11.7436 34.6722 11.7436 43.5066C11.2233 80.7517 12.0037 88.6589 12.0037 101.641C12.0037 108 11.7436 108 17.9377 108C41.9499 108 44.0729 108 57.9039 108C64.8704 108 64.8704 108 64.8704 97.8402V10.0278C64.8704 1.99996 64.8705 2 72.6144 2L348.283 2.56622C353 2.56622 353.06 2.50018 353.06 8M353 39.0934C353 46.1269 353 21.5662 353 49.2295C353 56.6722 353.2 56.6722 360 56.6722C366.8 56.6722 393.833 56.6722 409.5 56.6722M353 39.0934C353 34.6547 353.06 13.5 353.06 8M353 39.0934L353.06 8" stroke="#5960F6"/>
<circle cx="303.5" cy="2.5" r="1.5" fill="url(#paint0_linear_1012_1604)"/>
<circle cx="322.5" cy="2.5" r="2.5" fill="url(#paint1_linear_1012_1604)"/>
<path d="M474 54.5C474 71.897 459.449 86 441.5 86C423.551 86 409 71.897 409 54.5C409 37.103 423.551 23 441.5 23C459.449 23 474 37.103 474 54.5Z" fill="#0E0A3B"/>
<path fill-rule="evenodd" clip-rule="evenodd" d="M441.5 86C459.449 86 474 71.897 474 54.5C474 37.103 459.449 23 441.5 23C423.551 23 409 37.103 409 54.5C409 71.897 423.551 86 441.5 86ZM441.5 84.5592C458.678 84.5592 472.603 71.1013 472.603 54.5C472.603 37.8987 458.678 24.4407 441.5 24.4407C424.322 24.4407 410.397 37.8987 410.397 54.5C410.397 71.1013 424.322 84.5592 441.5 84.5592Z" fill="url(#paint2_linear_1012_1604)"/>
<path d="M418.981 53.2557C418.672 53.2557 418.362 53.2315 418.053 53.183C417.744 53.1414 417.452 53.0757 417.178 52.9856C416.904 52.8887 416.658 52.7709 416.44 52.6324C416.313 52.5493 416.225 52.4489 416.176 52.3312C416.127 52.2135 416.109 52.0992 416.123 51.9884C416.145 51.8707 416.19 51.7703 416.26 51.6872C416.338 51.5971 416.433 51.5417 416.545 51.5209C416.658 51.5002 416.781 51.5313 416.914 51.6144C417.223 51.7945 417.55 51.9261 417.895 52.0092C418.239 52.0923 418.601 52.1338 418.981 52.1338C419.536 52.1338 419.94 52.0438 420.193 51.8637C420.446 51.6768 420.573 51.4378 420.573 51.147C420.573 50.9046 420.482 50.7142 420.299 50.5757C420.123 50.4371 419.817 50.3229 419.381 50.2329L418.222 49.9939C417.554 49.8554 417.055 49.6234 416.724 49.2979C416.401 48.9655 416.239 48.5292 416.239 47.9891C416.239 47.6497 416.31 47.3416 416.45 47.0646C416.591 46.7876 416.788 46.5486 417.041 46.3478C417.301 46.147 417.607 45.9946 417.958 45.8907C418.317 45.7799 418.71 45.7245 419.139 45.7245C419.561 45.7245 419.961 45.7765 420.341 45.8803C420.721 45.9842 421.061 46.1366 421.364 46.3374C421.476 46.4136 421.55 46.5071 421.585 46.6179C421.627 46.7287 421.638 46.8395 421.617 46.9503C421.596 47.0542 421.546 47.1442 421.469 47.2204C421.392 47.2966 421.293 47.3416 421.174 47.3554C421.061 47.3693 420.931 47.3346 420.784 47.2515C420.524 47.1061 420.26 47.0022 419.993 46.9399C419.726 46.8776 419.438 46.8464 419.128 46.8464C418.805 46.8464 418.527 46.8914 418.295 46.9815C418.063 47.0715 417.884 47.1996 417.758 47.3658C417.638 47.5251 417.578 47.7155 417.578 47.9371C417.578 48.1864 417.663 48.3873 417.832 48.5396C418 48.6851 418.288 48.7993 418.696 48.8824L419.845 49.1214C420.541 49.2668 421.058 49.4953 421.395 49.807C421.74 50.1186 421.912 50.5341 421.912 51.0535C421.912 51.3859 421.842 51.6872 421.701 51.9572C421.568 52.2273 421.371 52.4593 421.111 52.6532C420.858 52.8471 420.552 52.996 420.193 53.0999C419.835 53.2038 419.431 53.2557 418.981 53.2557Z" fill="#5960F6"/>
<path d="M425.063 53.2349C424.845 53.2349 424.676 53.1761 424.557 53.0583C424.445 52.9337 424.388 52.764 424.388 52.5493V46.5036C424.388 46.282 424.448 46.1158 424.568 46.005C424.687 45.8873 424.856 45.8284 425.074 45.8284H427.615C428.43 45.8284 429.059 46.0292 429.502 46.4309C429.945 46.8326 430.166 47.3935 430.166 48.1137C430.166 48.834 429.945 49.3984 429.502 49.807C429.059 50.2086 428.43 50.4094 427.615 50.4094H425.738V52.5493C425.738 52.764 425.682 52.9337 425.569 53.0583C425.457 53.1761 425.288 53.2349 425.063 53.2349ZM425.738 49.3603H427.404C427.882 49.3603 428.244 49.2564 428.49 49.0486C428.736 48.834 428.859 48.5223 428.859 48.1137C428.859 47.7051 428.736 47.397 428.49 47.1892C428.244 46.9815 427.882 46.8776 427.404 46.8776H425.738V49.3603Z" fill="#5960F6"/>
<path d="M443.279 53.2349C443.061 53.2349 442.892 53.1761 442.773 53.0583C442.66 52.9337 442.604 52.764 442.604 52.5493V46.9399H440.548C440.365 46.9399 440.221 46.8914 440.116 46.7945C440.017 46.6906 439.968 46.5521 439.968 46.379C439.968 46.1989 440.017 46.0639 440.116 45.9738C440.221 45.8769 440.365 45.8284 440.548 45.8284H446.01C446.192 45.8284 446.333 45.8769 446.431 45.9738C446.537 46.0639 446.59 46.1989 446.59 46.379C446.59 46.5521 446.537 46.6906 446.431 46.7945C446.333 46.8914 446.192 46.9399 446.01 46.9399H443.954V52.5493C443.954 52.764 443.897 52.9337 443.785 53.0583C443.672 53.1761 443.504 53.2349 443.279 53.2349Z" fill="#5960F6"/>
<path d="M452.424 52.7973C452.238 52.7973 452.095 52.745 451.995 52.6403C451.895 52.5357 451.845 52.3918 451.845 52.2087V46.3131C451.845 46.1235 451.899 45.9796 452.005 45.8815C452.111 45.7768 452.258 45.7245 452.444 45.7245C452.61 45.7245 452.74 45.7572 452.833 45.8226C452.933 45.8815 453.022 45.9861 453.102 46.1365L455.566 50.6196H455.246L457.71 46.1365C457.79 45.9861 457.876 45.8815 457.969 45.8226C458.062 45.7572 458.192 45.7245 458.358 45.7245C458.544 45.7245 458.687 45.7768 458.787 45.8815C458.887 45.9796 458.937 46.1235 458.937 46.3131V52.2087C458.937 52.3918 458.887 52.5357 458.787 52.6403C458.694 52.745 458.551 52.7973 458.358 52.7973C458.172 52.7973 458.029 52.745 457.929 52.6403C457.83 52.5357 457.78 52.3918 457.78 52.2087V47.6668H457.999L455.905 51.4239C455.838 51.5351 455.768 51.6169 455.695 51.6692C455.622 51.7215 455.522 51.7477 455.396 51.7477C455.27 51.7477 455.167 51.7215 455.087 51.6692C455.007 51.6103 454.937 51.5286 454.877 51.4239L452.763 47.657H453.002V52.2087C453.002 52.3918 452.953 52.5357 452.853 52.6403C452.76 52.745 452.617 52.7973 452.424 52.7973Z" fill="#5960F6"/>
<path d="M464.045 52.7973C463.839 52.7973 463.679 52.7417 463.566 52.6305C463.46 52.5128 463.407 52.3493 463.407 52.14V49.1579L463.676 49.9133L461.272 46.5878C461.186 46.4701 461.146 46.3458 461.152 46.215C461.166 46.0777 461.222 45.9632 461.322 45.8717C461.422 45.7736 461.561 45.7245 461.741 45.7245C461.874 45.7245 461.994 45.7572 462.1 45.8226C462.213 45.888 462.319 45.9894 462.419 46.1267L464.204 48.6184H463.925L465.72 46.1267C465.827 45.9829 465.93 45.8815 466.03 45.8226C466.129 45.7572 466.252 45.7245 466.399 45.7245C466.572 45.7245 466.704 45.7703 466.798 45.8619C466.897 45.9469 466.947 46.0548 466.947 46.1856C466.954 46.3164 466.907 46.4537 466.808 46.5976L464.424 49.9133L464.683 49.1579V52.14C464.683 52.5782 464.47 52.7973 464.045 52.7973Z" fill="#5960F6"/>
<path d="M419.843 65.3056C419.624 65.3056 419.454 65.2499 419.334 65.1386C419.221 65.0207 419.165 64.8537 419.165 64.6376V59.0482C419.165 58.8321 419.221 58.6683 419.334 58.557C419.454 58.4391 419.624 58.3802 419.843 58.3802H423.406C423.572 58.3802 423.699 58.4228 423.785 58.5079C423.878 58.593 423.925 58.7142 423.925 58.8714C423.925 59.0351 423.878 59.1628 423.785 59.2545C423.699 59.3396 423.572 59.3822 423.406 59.3822H420.392V61.2879H423.186C423.359 61.2879 423.489 61.3305 423.576 61.4156C423.662 61.5007 423.705 61.6252 423.705 61.7889C423.705 61.9526 423.662 62.077 423.576 62.1622C423.489 62.2473 423.359 62.2899 423.186 62.2899H420.392V64.3036H423.406C423.572 64.3036 423.699 64.3462 423.785 64.4313C423.878 64.5165 423.925 64.6409 423.925 64.8046C423.925 64.9683 423.878 65.0928 423.785 65.1779C423.699 65.263 423.572 65.3056 423.406 65.3056H419.843Z" fill="#5960F6"/>
<path d="M427.065 65.3842C426.872 65.3842 426.723 65.3318 426.616 65.227C426.516 65.1222 426.466 64.9716 426.466 64.7752V58.9303C426.466 58.7273 426.516 58.5734 426.616 58.4686C426.723 58.3573 426.859 58.3016 427.025 58.3016C427.178 58.3016 427.291 58.3311 427.365 58.39C427.444 58.4424 427.538 58.5341 427.644 58.6651L431.466 63.5472H431.207V58.9008C431.207 58.7109 431.257 58.5636 431.356 58.4588C431.463 58.354 431.613 58.3016 431.805 58.3016C431.998 58.3016 432.145 58.354 432.245 58.4588C432.344 58.5636 432.394 58.7109 432.394 58.9008V64.7948C432.394 64.9782 432.348 65.1222 432.255 65.227C432.161 65.3318 432.035 65.3842 431.875 65.3842C431.722 65.3842 431.599 65.3547 431.506 65.2958C431.42 65.2368 431.323 65.1419 431.217 65.0109L427.404 60.1287H427.654V64.7752C427.654 64.9716 427.604 65.1222 427.504 65.227C427.404 65.3318 427.258 65.3842 427.065 65.3842Z" fill="#5960F6"/>
<path d="M435.957 65.3056C435.738 65.3056 435.568 65.2499 435.448 65.1386C435.335 65.0207 435.279 64.8537 435.279 64.6376V59.0482C435.279 58.8321 435.335 58.6683 435.448 58.557C435.568 58.4391 435.738 58.3802 435.957 58.3802H439.52C439.686 58.3802 439.813 58.4228 439.899 58.5079C439.992 58.593 440.039 58.7142 440.039 58.8714C440.039 59.0351 439.992 59.1628 439.899 59.2545C439.813 59.3396 439.686 59.3822 439.52 59.3822H436.506V61.2879H439.301C439.474 61.2879 439.603 61.3305 439.69 61.4156C439.776 61.5007 439.819 61.6252 439.819 61.7889C439.819 61.9526 439.776 62.077 439.69 62.1622C439.603 62.2473 439.474 62.2899 439.301 62.2899H436.506V64.3036H439.52C439.686 64.3036 439.813 64.3462 439.899 64.4313C439.992 64.5165 440.039 64.6409 440.039 64.8046C440.039 64.9683 439.992 65.0928 439.899 65.1779C439.813 65.263 439.686 65.3056 439.52 65.3056H435.957Z" fill="#5960F6"/>
<path d="M443.219 65.3842C443.013 65.3842 442.853 65.3285 442.74 65.2172C442.634 65.0993 442.581 64.9389 442.581 64.7359V59.0187C442.581 58.8091 442.637 58.652 442.75 58.5472C442.863 58.4359 443.023 58.3802 443.229 58.3802H445.634C446.406 58.3802 447.002 58.5636 447.421 58.9303C447.84 59.2905 448.049 59.798 448.049 60.4529C448.049 60.8786 447.953 61.2453 447.76 61.5531C447.574 61.8609 447.301 62.0967 446.942 62.2604C446.582 62.4241 446.147 62.506 445.634 62.506L445.724 62.3586H446.053C446.326 62.3586 446.562 62.4241 446.762 62.5551C446.968 62.6861 447.148 62.8924 447.301 63.174L448.049 64.5394C448.129 64.6769 448.166 64.8112 448.159 64.9422C448.153 65.0731 448.103 65.1812 448.009 65.2663C447.916 65.3449 447.78 65.3842 447.6 65.3842C447.421 65.3842 447.274 65.3482 447.161 65.2761C447.048 65.1976 446.948 65.0797 446.862 64.9225L445.854 63.0954C445.734 62.8727 445.591 62.7254 445.425 62.6533C445.265 62.5747 445.059 62.5354 444.806 62.5354H443.858V64.7359C443.858 64.9389 443.805 65.0993 443.698 65.2172C443.592 65.3285 443.432 65.3842 443.219 65.3842ZM443.858 61.6022H445.415C445.874 61.6022 446.22 61.5105 446.453 61.3272C446.692 61.1373 446.812 60.8557 446.812 60.4824C446.812 60.1156 446.692 59.8406 446.453 59.6572C446.22 59.4673 445.874 59.3723 445.415 59.3723H443.858V61.6022Z" fill="#5960F6"/>
<path d="M454.104 65.4038C453.325 65.4038 452.667 65.2598 452.128 64.9716C451.595 64.6835 451.19 64.2742 450.91 63.7437C450.631 63.2133 450.491 62.5846 450.491 61.8576C450.491 61.3075 450.571 60.8131 450.731 60.3743C450.897 59.9355 451.133 59.5623 451.439 59.2545C451.752 58.9401 452.131 58.7011 452.577 58.5374C453.022 58.3671 453.528 58.282 454.094 58.282C454.466 58.282 454.839 58.3278 455.211 58.4195C455.591 58.5046 455.947 58.652 456.279 58.8615C456.392 58.9336 456.465 59.022 456.499 59.1268C456.539 59.2315 456.545 59.3396 456.519 59.4509C456.492 59.5557 456.442 59.6474 456.369 59.726C456.296 59.8046 456.203 59.8537 456.09 59.8733C455.983 59.893 455.863 59.8668 455.73 59.7947C455.477 59.6507 455.221 59.5459 454.962 59.4804C454.702 59.4149 454.413 59.3822 454.094 59.3822C453.601 59.3822 453.185 59.4804 452.846 59.6769C452.507 59.8668 452.251 60.1451 452.078 60.5118C451.911 60.8786 451.828 61.3272 451.828 61.8576C451.828 62.6631 452.025 63.2755 452.417 63.6946C452.81 64.1137 453.392 64.3233 454.163 64.3233C454.43 64.3233 454.699 64.2971 454.972 64.2447C455.245 64.1923 455.511 64.1203 455.77 64.0286L455.521 64.5885V62.4962H454.423C454.257 62.4962 454.127 62.4536 454.034 62.3685C453.947 62.2833 453.904 62.1687 453.904 62.0246C453.904 61.874 453.947 61.7594 454.034 61.6808C454.127 61.6022 454.257 61.5629 454.423 61.5629H456.07C456.236 61.5629 456.362 61.6088 456.449 61.7005C456.542 61.7856 456.589 61.91 456.589 62.0738V64.4608C456.589 64.6049 456.559 64.726 456.499 64.8243C456.445 64.9225 456.356 64.9945 456.229 65.0404C455.937 65.1452 455.601 65.2336 455.221 65.3056C454.842 65.3711 454.47 65.4038 454.104 65.4038Z" fill="#5960F6"/>
<path d="M461.585 65.3842C461.379 65.3842 461.219 65.3285 461.106 65.2172C461 65.0993 460.946 64.9356 460.946 64.726V61.7398L461.216 62.4962L458.811 59.1661C458.724 59.0482 458.684 58.9238 458.691 58.7928C458.704 58.6552 458.761 58.5406 458.861 58.449C458.96 58.3507 459.1 58.3016 459.28 58.3016C459.413 58.3016 459.533 58.3344 459.639 58.3998C459.752 58.4653 459.859 58.5668 459.958 58.7044L461.745 61.1995H461.465L463.262 58.7044C463.368 58.5603 463.471 58.4588 463.571 58.3998C463.671 58.3344 463.794 58.3016 463.94 58.3016C464.113 58.3016 464.246 58.3474 464.339 58.4391C464.439 58.5243 464.489 58.6323 464.489 58.7633C464.496 58.8943 464.449 59.0318 464.349 59.1759L461.964 62.4962L462.224 61.7398V64.726C462.224 65.1648 462.011 65.3842 461.585 65.3842Z" fill="#5960F6"/>
<path fill-rule="evenodd" clip-rule="evenodd" d="M435.379 53.5132C437.602 53.5132 439.404 51.7696 439.404 49.6189C439.404 47.4681 437.602 45.7245 435.379 45.7245C433.156 45.7245 431.354 47.4681 431.354 49.6189C431.354 51.7696 433.156 53.5132 435.379 53.5132ZM435.414 52.8359C437.276 52.8359 438.785 51.3956 438.785 49.6189C438.785 47.8421 437.276 46.4018 435.414 46.4018C433.552 46.4018 432.042 47.8421 432.042 49.6189C432.042 51.3956 433.552 52.8359 435.414 52.8359Z" fill="url(#paint3_linear_1012_1604)"/>
<path d="M436.652 49.6189C436.652 50.2734 436.098 50.8041 435.414 50.8041C434.73 50.8041 434.175 50.2734 434.175 49.6189C434.175 48.9643 434.73 48.4336 435.414 48.4336C436.098 48.4336 436.652 48.9643 436.652 49.6189Z" fill="url(#paint4_linear_1012_1604)"/>
<defs>
<linearGradient id="paint0_linear_1012_1604" x1="304.735" y1="1.92661" x2="302.648" y2="1.9299" gradientUnits="userSpaceOnUse">
<stop stop-color="#FFAD32"/>
<stop offset="0.0001" stop-color="#FFAD32"/>
<stop offset="0.78805" stop-color="#FF5F5F"/>
</linearGradient>
<linearGradient id="paint1_linear_1012_1604" x1="324.558" y1="1.54434" x2="321.08" y2="1.54984" gradientUnits="userSpaceOnUse">
<stop stop-color="#FFAD32"/>
<stop offset="0.0001" stop-color="#FFAD32"/>
<stop offset="0.78805" stop-color="#FF5F5F"/>
</linearGradient>
<linearGradient id="paint2_linear_1012_1604" x1="468.253" y1="42.4587" x2="423.042" y2="42.5325" gradientUnits="userSpaceOnUse">
<stop stop-color="#FFAD32"/>
<stop offset="0.0001" stop-color="#FFAD32"/>
<stop offset="0.78805" stop-color="#FF5F5F"/>
</linearGradient>
<linearGradient id="paint3_linear_1012_1604" x1="468.253" y1="42.4587" x2="423.042" y2="42.5325" gradientUnits="userSpaceOnUse">
<stop stop-color="#FFAD32"/>
<stop offset="0.0001" stop-color="#FFAD32"/>
<stop offset="0.78805" stop-color="#FF5F5F"/>
</linearGradient>
<linearGradient id="paint4_linear_1012_1604" x1="468.253" y1="42.4587" x2="423.042" y2="42.5325" gradientUnits="userSpaceOnUse">
<stop stop-color="#FFAD32"/>
<stop offset="0.0001" stop-color="#FFAD32"/>
<stop offset="0.78805" stop-color="#FF5F5F"/>
</linearGradient>
</defs>
</svg>
